<?xml version="1.0" encoding="UTF-8" standalone="no"?><!DOCTYPE svg PUBLIC "-//W3C//DTD SVG 1.1//EN" "http://www.w3.org/Graphics/SVG/1.1/DTD/svg11.dtd"><!-- Generated by graphviz version 2.40.1 (20161225.0304)
 --><!-- Title: G Pages: 1 --><svg xmlns="http://www.w3.org/2000/svg" xmlns:xlink="http://www.w3.org/1999/xlink" width="488pt" height="44pt" viewBox="0.00 0.00 487.96 44.00">
<g id="graph0" class="graph" transform="scale(1 1) rotate(0) translate(4 40)">
<title>G</title>
<polygon fill="#ffffff" stroke="transparent" points="-4,4 -4,-40 483.9626,-40 483.9626,4 -4,4"/>
<!-- Camera -->
<g id="node1" class="node">
<title>Camera</title>
<ellipse fill="none" stroke="#000000" cx="41.0638" cy="-18" rx="41.1277" ry="18"/>
<text text-anchor="middle" x="41.0638" y="-13.8" font-family="Times,serif" font-size="14.00" fill="#000000">Camera</text>
</g>
<!-- watermeter -->
<g id="node2" class="node">
<title>watermeter</title>
<ellipse fill="none" stroke="#000000" cx="208.5914" cy="-18" rx="54.4276" ry="18"/>
<text text-anchor="middle" x="208.5914" y="-13.8" font-family="Times,serif" font-size="14.00" fill="#000000">watermeter</text>
</g>
<!-- Camera&#45;&gt;watermeter -->
<g id="edge1" class="edge">
<title>Camera-&gt;watermeter</title>
<path fill="none" stroke="#000000" d="M82.4751,-18C100.9596,-18 123.178,-18 143.7818,-18"/>
<polygon fill="#000000" stroke="#000000" points="144.0608,-21.5001 154.0607,-18 144.0607,-14.5001 144.0608,-21.5001"/>
<text text-anchor="middle" x="130.6257" y="-22.2" font-family="Times,serif" font-size="14.00" fill="#000000">HTTP</text>
</g>
<!-- Home Assistant -->
<g id="node3" class="node">
<title>Home Assistant</title>
<ellipse fill="none" stroke="#000000" cx="407.5089" cy="-18" rx="72.4074" ry="18"/>
<text text-anchor="middle" x="407.5089" y="-13.8" font-family="Times,serif" font-size="14.00" fill="#000000">Home Assistant</text>
</g>
<!-- watermeter&#45;&gt;Home Assistant -->
<g id="edge2" class="edge">
<title>watermeter-&gt;Home Assistant</title>
<path fill="none" stroke="#000000" d="M263.2096,-18C282.187,-18 303.9191,-18 324.6595,-18"/>
<polygon fill="#000000" stroke="#000000" points="324.7451,-21.5001 334.7451,-18 324.745,-14.5001 324.7451,-21.5001"/>
<text text-anchor="middle" x="311.4318" y="-22.2" font-family="Times,serif" font-size="14.00" fill="#000000">HTTP</text>
</g>
</g>
</svg>